<svg width="300" height="300" viewBox="0 0 300 300" fill="none" xmlns="http://www.w3.org/2000/svg">
<path d="M184.341 15C189.311 15.0003 193.34 19.0296 193.34 24V45.3672L208.449 30.2578C211.964 26.7431 217.663 26.7431 221.178 30.2578L269.732 78.8125C273.247 82.3271 273.247 88.0254 269.732 91.54L254.612 106.66H276C280.971 106.66 285 110.69 285 115.66V184.327C285 189.298 280.97 193.327 276 193.327H254.621L269.743 208.449C273.258 211.964 273.258 217.663 269.743 221.178L221.188 269.732C217.674 273.247 211.975 273.247 208.46 269.732L193.34 254.611V276C193.34 280.971 189.31 285 184.34 285H115.674C110.703 285 106.674 280.971 106.674 276V254.599L91.541 269.731C88.0264 273.246 82.3282 273.246 78.8135 269.731L30.2588 221.177C26.7441 217.662 26.7441 211.964 30.2588 208.449L45.3809 193.327H24C19.0296 193.327 15.0002 189.298 15 184.327V115.66C15 110.69 19.0294 106.66 24 106.66H45.3887L30.2695 91.541C26.7548 88.0263 26.7549 82.3282 30.2695 78.8135L78.8242 30.2588C82.3389 26.7441 88.037 26.7441 91.5518 30.2588L106.674 45.3799V24C106.674 19.0294 110.703 15 115.674 15H184.341Z" fill="black"/>
<path d="M107.519 140V95.9H113.999C116.459 95.9 118.509 96.44 120.149 97.52C121.809 98.6 123.049 100.13 123.869 102.11C124.689 104.09 125.099 106.42 125.099 109.1C125.099 111.78 124.669 114.09 123.809 116.03C122.949 117.97 121.689 119.49 120.029 120.59C118.389 121.67 116.379 122.26 113.999 122.36V140H107.519ZM113.999 115.76C115.139 115.76 116.039 115.54 116.699 115.1C117.359 114.64 117.829 113.92 118.109 112.94C118.409 111.96 118.559 110.7 118.559 109.16C118.559 107.6 118.409 106.33 118.109 105.35C117.829 104.37 117.349 103.65 116.669 103.19C116.009 102.73 115.119 102.5 113.999 102.5V115.76ZM136.953 140.48C135.153 140.48 133.603 140.06 132.303 139.22C131.023 138.38 130.033 137.24 129.333 135.8C128.653 134.36 128.313 132.74 128.313 130.94V104.96C128.313 103.14 128.653 101.52 129.333 100.1C130.033 98.66 131.023 97.52 132.303 96.68C133.603 95.84 135.153 95.42 136.953 95.42C138.753 95.42 140.293 95.84 141.573 96.68C142.873 97.52 143.863 98.66 144.543 100.1C145.243 101.54 145.593 103.16 145.593 104.96V130.94C145.593 132.74 145.243 134.36 144.543 135.8C143.863 137.24 142.873 138.38 141.573 139.22C140.293 140.06 138.753 140.48 136.953 140.48ZM136.953 134.18C137.753 134.18 138.313 133.85 138.633 133.19C138.953 132.51 139.113 131.76 139.113 130.94V104.96C139.113 104.14 138.943 103.4 138.603 102.74C138.263 102.06 137.713 101.72 136.953 101.72C136.213 101.72 135.663 102.06 135.303 102.74C134.963 103.4 134.793 104.14 134.793 104.96V130.94C134.793 131.76 134.963 132.51 135.303 133.19C135.643 133.85 136.193 134.18 136.953 134.18ZM150.117 140V95.9H156.597C159.057 95.9 161.107 96.44 162.747 97.52C164.407 98.6 165.647 100.13 166.467 102.11C167.287 104.09 167.697 106.42 167.697 109.1C167.697 111.78 167.267 114.09 166.407 116.03C165.547 117.97 164.287 119.49 162.627 120.59C160.987 121.67 158.977 122.26 156.597 122.36V140H150.117ZM156.597 115.76C157.737 115.76 158.637 115.54 159.297 115.1C159.957 114.64 160.427 113.92 160.707 112.94C161.007 111.96 161.157 110.7 161.157 109.16C161.157 107.6 161.007 106.33 160.707 105.35C160.427 104.37 159.947 103.65 159.267 103.19C158.607 102.73 157.717 102.5 156.597 102.5V115.76ZM170.131 110.36L172.231 102.56H170.131V95.9H176.431V102.56L173.131 110.36H170.131ZM187.253 140.48C185.833 140.48 184.593 140.24 183.533 139.76C182.473 139.28 181.593 138.6 180.893 137.72C180.193 136.82 179.663 135.76 179.303 134.54C178.963 133.32 178.793 131.96 178.793 130.46H184.433C184.433 131.8 184.643 132.97 185.063 133.97C185.503 134.95 186.233 135.44 187.253 135.44C188.133 135.44 188.703 135.07 188.963 134.33C189.223 133.59 189.353 132.74 189.353 131.78C189.353 130.66 188.913 129.52 188.033 128.36C187.173 127.18 186.273 126.13 185.333 125.21C183.713 123.61 182.363 122.03 181.283 120.47C180.223 118.91 179.693 117.08 179.693 114.98C179.693 112.5 180.343 110.5 181.643 108.98C182.943 107.46 184.793 106.7 187.193 106.7C188.633 106.7 189.843 106.89 190.823 107.27C191.823 107.65 192.623 108.22 193.223 108.98C193.823 109.74 194.253 110.67 194.513 111.77C194.793 112.87 194.933 114.14 194.933 115.58H189.293C189.293 114.54 189.183 113.64 188.963 112.88C188.743 112.12 188.193 111.74 187.313 111.74C186.593 111.74 186.083 112.05 185.783 112.67C185.483 113.27 185.333 114.04 185.333 114.98C185.333 116.08 185.593 117.06 186.113 117.92C186.653 118.76 187.543 119.79 188.783 121.01C190.343 122.53 191.763 124.15 193.043 125.87C194.343 127.59 194.993 129.46 194.993 131.48C194.993 132.8 194.813 134.01 194.453 135.11C194.113 136.21 193.603 137.16 192.923 137.96C192.263 138.76 191.453 139.38 190.493 139.82C189.553 140.26 188.473 140.48 187.253 140.48ZM82.6754 198V153.9H90.8954L94.4354 176.76L94.7354 179.1H94.8554L95.1554 176.76L98.6954 153.9H106.915V198H100.915V168.42H100.555L100.315 170.28L96.4754 198H93.1154L89.2754 170.28L89.0354 168.42H88.6754V198H82.6754ZM118.338 198.48C115.918 198.48 114.008 197.65 112.608 195.99C111.228 194.31 110.538 192.26 110.538 189.84V173.34C110.538 170.78 111.228 168.7 112.608 167.1C113.988 165.5 115.918 164.7 118.398 164.7C120.018 164.7 121.408 165.07 122.568 165.81C123.748 166.55 124.648 167.56 125.268 168.84C125.888 170.1 126.198 171.54 126.198 173.16V182.7H116.178V189.84C116.178 190.66 116.358 191.42 116.718 192.12C117.098 192.8 117.658 193.14 118.398 193.14C119.178 193.14 119.728 192.82 120.048 192.18C120.388 191.54 120.558 190.76 120.558 189.84V186.24H126.198V190.02C126.198 192.56 125.508 194.61 124.128 196.17C122.768 197.71 120.838 198.48 118.338 198.48ZM116.178 177.96H120.558V173.34C120.558 172.44 120.398 171.66 120.078 171C119.778 170.32 119.218 169.98 118.398 169.98C117.638 169.98 117.078 170.33 116.718 171.03C116.358 171.71 116.178 172.48 116.178 173.34V177.96ZM136.51 198.48C135.09 198.48 133.85 198.24 132.79 197.76C131.73 197.28 130.85 196.6 130.15 195.72C129.45 194.82 128.92 193.76 128.56 192.54C128.22 191.32 128.05 189.96 128.05 188.46H133.69C133.69 189.8 133.9 190.97 134.32 191.97C134.76 192.95 135.49 193.44 136.51 193.44C137.39 193.44 137.96 193.07 138.22 192.33C138.48 191.59 138.61 190.74 138.61 189.78C138.61 188.66 138.17 187.52 137.29 186.36C136.43 185.18 135.53 184.13 134.59 183.21C132.97 181.61 131.62 180.03 130.54 178.47C129.48 176.91 128.95 175.08 128.95 172.98C128.95 170.5 129.6 168.5 130.9 166.98C132.2 165.46 134.05 164.7 136.45 164.7C137.89 164.7 139.1 164.89 140.08 165.27C141.08 165.65 141.88 166.22 142.48 166.98C143.08 167.74 143.51 168.67 143.77 169.77C144.05 170.87 144.19 172.14 144.19 173.58H138.55C138.55 172.54 138.44 171.64 138.22 170.88C138 170.12 137.45 169.74 136.57 169.74C135.85 169.74 135.34 170.05 135.04 170.67C134.74 171.27 134.59 172.04 134.59 172.98C134.59 174.08 134.85 175.06 135.37 175.92C135.91 176.76 136.8 177.79 138.04 179.01C139.6 180.53 141.02 182.15 142.3 183.87C143.6 185.59 144.25 187.46 144.25 189.48C144.25 190.8 144.07 192.01 143.71 193.11C143.37 194.21 142.86 195.16 142.18 195.96C141.52 196.76 140.71 197.38 139.75 197.82C138.81 198.26 137.73 198.48 136.51 198.48ZM154.499 198.48C153.079 198.48 151.839 198.24 150.779 197.76C149.719 197.28 148.839 196.6 148.139 195.72C147.439 194.82 146.909 193.76 146.549 192.54C146.209 191.32 146.039 189.96 146.039 188.46H151.679C151.679 189.8 151.889 190.97 152.309 191.97C152.749 192.95 153.479 193.44 154.499 193.44C155.379 193.44 155.949 193.07 156.209 192.33C156.469 191.59 156.599 190.74 156.599 189.78C156.599 188.66 156.159 187.52 155.279 186.36C154.419 185.18 153.519 184.13 152.579 183.21C150.959 181.61 149.609 180.03 148.529 178.47C147.469 176.91 146.939 175.08 146.939 172.98C146.939 170.5 147.589 168.5 148.889 166.98C150.189 165.46 152.039 164.7 154.439 164.7C155.879 164.7 157.089 164.89 158.069 165.27C159.069 165.65 159.869 166.22 160.469 166.98C161.069 167.74 161.499 168.67 161.759 169.77C162.039 170.87 162.179 172.14 162.179 173.58H156.539C156.539 172.54 156.429 171.64 156.209 170.88C155.989 170.12 155.439 169.74 154.559 169.74C153.839 169.74 153.329 170.05 153.029 170.67C152.729 171.27 152.579 172.04 152.579 172.98C152.579 174.08 152.839 175.06 153.359 175.92C153.899 176.76 154.789 177.79 156.029 179.01C157.589 180.53 159.009 182.15 160.289 183.87C161.589 185.59 162.239 187.46 162.239 189.48C162.239 190.8 162.059 192.01 161.699 193.11C161.359 194.21 160.849 195.16 160.169 195.96C159.509 196.76 158.699 197.38 157.739 197.82C156.799 198.26 155.719 198.48 154.499 198.48ZM169.337 198.48C167.937 198.48 166.727 197.77 165.707 196.35C164.687 194.93 164.177 192.76 164.177 189.84C164.177 187.02 164.777 184.75 165.977 183.03C167.197 181.31 169.017 179.82 171.437 178.56C172.197 178.16 172.837 177.8 173.357 177.48C173.877 177.16 174.197 176.86 174.317 176.58V172.98C174.317 172.16 174.217 171.46 174.017 170.88C173.837 170.28 173.377 169.98 172.637 169.98C171.957 169.98 171.497 170.3 171.257 170.94C171.017 171.56 170.897 172.34 170.897 173.28V174.84H164.837V173.46C164.837 171.66 165.187 170.11 165.887 168.81C166.607 167.49 167.577 166.48 168.797 165.78C170.037 165.06 171.437 164.7 172.997 164.7C174.497 164.7 175.797 165.05 176.897 165.75C177.997 166.43 178.847 167.38 179.447 168.6C180.067 169.8 180.377 171.18 180.377 172.74V192.3C180.377 193.76 180.417 194.9 180.497 195.72C180.577 196.52 180.677 197.28 180.797 198H174.857C174.597 197.68 174.437 197.21 174.377 196.59C174.337 195.97 174.317 195.56 174.317 195.36H173.897C173.397 196.28 172.757 197.03 171.977 197.61C171.217 198.19 170.337 198.48 169.337 198.48ZM171.797 192.54C172.497 192.54 173.087 192.3 173.567 191.82C174.067 191.34 174.317 190.82 174.317 190.26V182.46C172.857 183.08 171.787 184.02 171.107 185.28C170.447 186.52 170.117 187.92 170.117 189.48C170.117 190.16 170.247 190.84 170.507 191.52C170.767 192.2 171.197 192.54 171.797 192.54ZM192.457 209.76C190.757 209.76 189.167 209.57 187.687 209.19C186.207 208.81 185.007 208.19 184.087 207.33C183.187 206.49 182.737 205.38 182.737 204C182.737 202.94 183.027 202.02 183.607 201.24C184.207 200.46 184.887 199.82 185.647 199.32C186.407 198.84 187.017 198.54 187.477 198.42C186.497 198.14 185.637 197.66 184.897 196.98C184.177 196.3 183.817 195.32 183.817 194.04C183.817 192.8 184.217 191.79 185.017 191.01C185.817 190.23 186.677 189.6 187.597 189.12C186.497 188.4 185.637 187.46 185.017 186.3C184.417 185.12 184.117 183.68 184.117 181.98V173.04C184.117 170.58 184.797 168.58 186.157 167.04C187.537 165.48 189.417 164.7 191.797 164.7C193.337 164.7 194.587 165 195.547 165.6C196.527 166.18 197.297 166.88 197.857 167.7C198.437 166.72 199.217 165.98 200.197 165.48C201.177 164.96 202.057 164.7 202.837 164.7V170.1C202.037 170.1 201.337 170.17 200.737 170.31C200.137 170.43 199.657 170.6 199.297 170.82C199.357 170.96 199.417 171.25 199.477 171.69C199.557 172.13 199.597 172.52 199.597 172.86V182.16C199.597 184.48 198.887 186.41 197.467 187.95C196.047 189.49 194.157 190.26 191.797 190.26C191.237 190.26 190.857 190.24 190.657 190.2C190.397 190.44 190.187 190.68 190.027 190.92C189.887 191.16 189.817 191.42 189.817 191.7C189.817 192.34 190.177 192.8 190.897 193.08C191.637 193.34 192.617 193.56 193.837 193.74C196.417 194.12 198.507 194.87 200.107 195.99C201.727 197.11 202.537 198.9 202.537 201.36C202.537 203.28 202.047 204.86 201.067 206.1C200.107 207.34 198.857 208.26 197.317 208.86C195.777 209.46 194.157 209.76 192.457 209.76ZM192.577 204.66C193.577 204.66 194.447 204.48 195.187 204.12C195.927 203.76 196.297 203.2 196.297 202.44C196.297 201.68 196.067 201.16 195.607 200.88C195.167 200.62 194.417 200.36 193.357 200.1L190.837 199.5C190.217 199.86 189.687 200.27 189.247 200.73C188.827 201.19 188.617 201.74 188.617 202.38C188.617 203 188.927 203.53 189.547 203.97C190.167 204.43 191.177 204.66 192.577 204.66ZM191.857 185.22C192.497 185.22 192.957 185 193.237 184.56C193.517 184.12 193.657 183.46 193.657 182.58V172.98C193.657 172.18 193.527 171.53 193.267 171.03C193.007 170.53 192.537 170.28 191.857 170.28C191.177 170.28 190.707 170.54 190.447 171.06C190.187 171.58 190.057 172.22 190.057 172.98V182.58C190.057 183.46 190.197 184.12 190.477 184.56C190.757 185 191.217 185.22 191.857 185.22ZM211.678 198.48C209.258 198.48 207.348 197.65 205.948 195.99C204.568 194.31 203.878 192.26 203.878 189.84V173.34C203.878 170.78 204.568 168.7 205.948 167.1C207.328 165.5 209.258 164.7 211.738 164.7C213.358 164.7 214.748 165.07 215.908 165.81C217.088 166.55 217.988 167.56 218.608 168.84C219.228 170.1 219.538 171.54 219.538 173.16V182.7H209.518V189.84C209.518 190.66 209.698 191.42 210.058 192.12C210.438 192.8 210.998 193.14 211.738 193.14C212.518 193.14 213.068 192.82 213.388 192.18C213.728 191.54 213.898 190.76 213.898 189.84V186.24H219.538V190.02C219.538 192.56 218.848 194.61 217.468 196.17C216.108 197.71 214.178 198.48 211.678 198.48ZM209.518 177.96H213.898V173.34C213.898 172.44 213.738 171.66 213.418 171C213.118 170.32 212.558 169.98 211.738 169.98C210.978 169.98 210.418 170.33 210.058 171.03C209.698 171.71 209.518 172.48 209.518 173.34V177.96Z" fill="white"/>
</svg>
