<svg width="392" height="461" viewBox="0 0 392 461" fill="none" xmlns="http://www.w3.org/2000/svg">
<g clip-path="url(#clip0_212_11110)">
<path d="M350.683 308.945C365.919 335.36 356.189 369.534 328.952 385.275C318.288 391.437 306.521 393.86 295.236 392.942C290.387 403.185 282.406 412.174 271.742 418.337C244.504 434.077 210.072 425.425 194.836 399.01C188.248 387.588 186.329 374.715 188.474 362.51C176.841 358.266 166.664 350.167 160.076 338.745C144.84 312.33 154.569 278.156 181.807 262.415C192.471 256.252 204.238 253.827 215.524 254.745C220.373 244.503 228.353 235.515 239.017 229.353C266.255 213.612 300.687 222.265 315.923 248.68C322.511 260.102 324.43 272.974 322.286 285.179C333.918 289.423 344.095 297.523 350.683 308.945Z" fill="url(#paint0_radial_212_11110)"/>
</g>
<g clip-path="url(#clip1_212_11110)">
<path d="M103.425 285.047C89.4716 281.305 74.7534 290.299 69.1222 305.418C55.57 299.004 39.667 302.81 31.9225 315.006C24.1004 327.325 27.3093 343.94 38.8266 353.968C29.2819 365.333 27.9609 381.403 36.4494 392.249C45.0781 403.272 60.923 405.168 73.7732 397.446C81.0448 410.564 95.7128 416.853 108.692 411.624C121.461 406.481 128.345 391.902 125.756 377.283C140.74 374.362 151.818 361.579 151.197 346.996C150.571 332.289 138.264 320.884 122.931 320.016C125.689 304.047 117.424 288.802 103.425 285.047Z" fill="url(#paint1_radial_212_11110)"/>
</g>
<g clip-path="url(#clip2_212_11110)">
<path d="M143.817 116.179C146.733 116.801 148.594 119.67 147.973 122.587L145.303 135.126L156.057 128.151C158.559 126.528 161.903 127.241 163.526 129.744L185.951 164.316C187.574 166.819 186.862 170.163 184.36 171.785L173.598 178.766L186.149 181.443C189.066 182.065 190.927 184.934 190.306 187.851L181.726 228.148C181.105 231.065 178.237 232.925 175.32 232.303L162.775 229.627L169.759 240.394C171.382 242.897 170.67 246.241 168.169 247.864L133.61 270.28C131.109 271.902 127.765 271.189 126.142 268.686L119.158 257.92L116.486 270.472C115.865 273.389 112.997 275.249 110.081 274.627L69.7871 266.032C66.8703 265.409 65.0091 262.54 65.6301 259.623L68.3042 247.064L57.534 254.05C55.0326 255.673 51.6887 254.959 50.0653 252.457L27.6405 217.885C26.0173 215.382 26.7294 212.038 29.2309 210.416L39.9939 203.434L27.4472 200.758C24.5307 200.135 22.6702 197.266 23.2912 194.349L31.8711 154.052C32.4924 151.136 35.3598 149.276 38.2762 149.898L50.8268 152.575L43.8442 141.81C42.221 139.308 42.9333 135.964 45.4345 134.341L79.9931 111.925C82.4947 110.302 85.8386 111.016 87.4618 113.518L94.4461 124.285L97.1175 111.738C97.7388 108.821 100.607 106.961 103.524 107.583L143.817 116.179Z" fill="url(#paint2_radial_212_11110)"/>
</g>
<g clip-path="url(#clip3_212_11110)">
<path d="M161.782 14.2759V14.2759C157.694 28.9874 174.817 40.3446 186.771 30.8499V30.8499V30.8499C174.817 40.3446 182.001 59.5972 197.253 58.9459V58.9459V58.9459C182.001 59.5972 176.5 79.3913 189.227 87.8322V87.8322V87.8322C176.5 79.3913 160.417 92.1664 165.756 106.475V106.475V106.475C160.417 92.1664 139.895 93.0427 135.807 107.754V107.754V107.754C139.895 93.0427 122.772 81.6855 110.819 91.1802V91.1802V91.1802C122.772 81.6855 115.589 62.4329 100.336 63.0842V63.0842V63.0842C115.589 62.4329 121.089 42.6388 108.363 34.1978V34.1978V34.1978C121.089 42.6388 137.172 29.8637 131.833 15.5548V15.5548V15.5548C137.172 29.8637 157.694 28.9874 161.782 14.2759V14.2759Z" fill="url(#paint3_radial_212_11110)"/>
</g>
<g clip-path="url(#clip4_212_11110)">
<path d="M234.203 205.575L240.411 218.364L330.641 174.479L324.433 161.69L337.967 155.108L294.151 64.8457L280.617 71.4282L274.045 57.8892L183.815 101.774L190.387 115.313L177.605 121.53L221.421 211.792L234.203 205.575Z" fill="url(#paint4_radial_212_11110)"/>
</g>
<defs>
<radialGradient id="paint0_radial_212_11110" cx="0" cy="0" r="1" gradientUnits="userSpaceOnUse" gradientTransform="translate(255.379 323.845) rotate(-166.209) scale(129.995 104.664)">
<stop offset="0.218228" stop-color="#FFF97C"/>
<stop offset="1" stop-color="#C9FF96"/>
</radialGradient>
<radialGradient id="paint1_radial_212_11110" cx="0" cy="0" r="1" gradientUnits="userSpaceOnUse" gradientTransform="translate(87.5413 346.014) rotate(76.7898) scale(80.0009 72.677)">
<stop offset="0.345616" stop-color="#FF644C"/>
<stop offset="0.962923" stop-color="#FF9185"/>
</radialGradient>
<radialGradient id="paint2_radial_212_11110" cx="0" cy="0" r="1" gradientUnits="userSpaceOnUse" gradientTransform="translate(106.798 191.104) rotate(145.823) scale(117.022 94.1764)">
<stop offset="0.184294" stop-color="#DCB5F0"/>
<stop offset="1" stop-color="#F4E0FF"/>
</radialGradient>
<radialGradient id="paint3_radial_212_11110" cx="0" cy="0" r="1" gradientUnits="userSpaceOnUse" gradientTransform="translate(148.795 61.015) rotate(149.335) scale(70.0793 56.4042)">
<stop offset="0.326938" stop-color="#35D686"/>
<stop offset="1" stop-color="#1EB19D"/>
</radialGradient>
<radialGradient id="paint4_radial_212_11110" cx="0" cy="0" r="1" gradientUnits="userSpaceOnUse" gradientTransform="translate(257.604 137.944) rotate(-69.7083) scale(93.6711 75.298)">
<stop offset="0.1" stop-color="#2550D3"/>
<stop offset="0.59" stop-color="#3D78FF"/>
</radialGradient>
<clipPath id="clip0_212_11110">
<rect width="200.151" height="200.054" fill="white" transform="matrix(0.499639 0.866234 -0.865817 0.500361 291.997 187.185)"/>
</clipPath>
<clipPath id="clip1_212_11110">
<rect width="140.013" height="140.13" fill="white" transform="matrix(-0.965863 -0.259051 -0.258587 0.965988 173.253 296.528)"/>
</clipPath>
<clipPath id="clip2_212_11110">
<rect width="180.013" height="180.171" fill="white" transform="matrix(0.977994 0.208634 -0.20825 0.978076 37.5208 84.3003)"/>
</clipPath>
<clipPath id="clip3_212_11110">
<rect width="98.0098" height="98.0906" fill="white" transform="matrix(0.963361 0.268209 -0.26773 0.963494 114.709 0.661621)"/>
</clipPath>
<clipPath id="clip4_212_11110">
<rect width="144.117" height="144.031" fill="white" transform="matrix(0.436697 0.899609 0.899278 -0.437377 161.414 104.663)"/>
</clipPath>
</defs>
</svg>
