<svg width="48" height="48" viewBox="0 0 48 48" fill="none" xmlns="http://www.w3.org/2000/svg">
<path d="M14.655 36C13.983 36 13.3725 35.7255 12.8235 35.1765C12.2745 34.6275 12 34.0175 12 33.3465V17.229C12 16.937 12.0465 16.662 12.1395 16.404C12.2325 16.146 12.3725 15.9085 12.5595 15.6915L14.8965 12.8865C15.1135 12.5935 15.385 12.3725 15.711 12.2235C16.037 12.0745 16.3865 12 16.7595 12H31.1835C31.5555 12 31.9095 12.0745 32.2455 12.2235C32.5815 12.3725 32.858 12.593 33.075 12.885L35.4405 15.75C35.6275 15.967 35.7675 16.2095 35.8605 16.4775C35.9535 16.7445 36 17.0245 36 17.3175V33.345C36 34.016 35.7255 34.626 35.1765 35.175C34.6275 35.724 34.0175 35.9985 33.3465 35.9985L14.655 36ZM14.07 16.212H33.9L31.905 13.815C31.808 13.719 31.697 13.6425 31.572 13.5855C31.447 13.5285 31.317 13.5 31.182 13.5H16.788C16.654 13.5 16.524 13.529 16.398 13.587C16.272 13.645 16.162 13.722 16.068 13.818L14.07 16.212ZM24 21.8655C23.787 21.8655 23.6085 21.937 23.4645 22.08C23.3205 22.223 23.249 22.4015 23.25 22.6155V28.9155L20.631 26.2965C20.491 26.1565 20.319 26.0815 20.115 26.0715C19.911 26.0615 19.729 26.1365 19.569 26.2965C19.409 26.4565 19.329 26.6335 19.329 26.8275C19.329 27.0215 19.409 27.1985 19.569 27.3585L23.151 30.9405C23.394 31.1825 23.677 31.3035 24 31.3035C24.323 31.3035 24.606 31.1825 24.849 30.9405L28.431 27.3585C28.571 27.2175 28.646 27.045 28.656 26.841C28.666 26.637 28.591 26.4555 28.431 26.2965C28.271 26.1375 28.094 26.0575 27.9 26.0565C27.706 26.0555 27.529 26.1355 27.369 26.2965L24.75 28.9155V22.6155C24.75 22.4025 24.6785 22.224 24.5355 22.08C24.3925 21.936 24.214 21.8645 24 21.8655Z" fill="#F6F8FD"/>
</svg>
