<svg width="200" height="200" viewBox="0 0 200 200" fill="none" xmlns="http://www.w3.org/2000/svg">
<path d="M100.602 10C121.24 10 138.229 27.8573 140.415 50.8027C161.486 46.9684 182.026 58.104 188.208 77.7979C194.452 97.6901 183.885 119.428 164.287 129.003C173.26 148.217 169.146 170.88 153.426 182.703C137.446 194.721 114.881 191.472 99.9999 176.062C85.1193 191.471 62.5548 194.721 46.5751 182.703C30.8545 170.88 26.7397 148.217 35.7128 129.003C16.1147 119.428 5.5488 97.6899 11.7929 77.7979C18.0903 57.7363 39.2869 46.5545 60.7665 51.0322C62.8603 27.9764 79.8961 10 100.602 10Z" fill="url(#paint0_radial_176_811)"/>
<defs>
<radialGradient id="paint0_radial_176_811" cx="0" cy="0" r="1" gradientUnits="userSpaceOnUse" gradientTransform="translate(100 99.9999) rotate(118.203) scale(114.264 103.845)">
<stop offset="0.345616" stop-color="#FF644C"/>
<stop offset="0.962923" stop-color="#FF9185"/>
</radialGradient>
</defs>
</svg>
