<svg width="200" height="200" viewBox="0 0 200 200" fill="none" xmlns="http://www.w3.org/2000/svg">
<path d="M100 1C100 32.161 139.875 45.1171 158.191 19.9073C139.875 45.1171 164.519 79.0366 194.155 69.4073C164.519 79.0366 164.519 120.963 194.155 130.593C164.519 120.963 139.875 154.883 158.191 180.093C139.875 154.883 100 167.839 100 199C100 167.839 60.1252 154.883 41.8093 180.093C60.1252 154.883 35.4813 120.963 5.84541 130.593C35.4812 120.963 35.4812 79.0366 5.84541 69.4073C35.4813 79.0366 60.1252 45.1171 41.8093 19.9073C60.1252 45.1171 100 32.161 100 1Z" fill="url(#paint0_radial_176_803)"/>
<defs>
<radialGradient id="paint0_radial_176_803" cx="0" cy="0" r="1" gradientUnits="userSpaceOnUse" gradientTransform="translate(100 100) rotate(118.202) scale(125.691 114.23)">
<stop offset="0.345616" stop-color="#FF644C"/>
<stop offset="0.962923" stop-color="#FF9185"/>
</radialGradient>
</defs>
</svg>
