<svg width="200" height="200" viewBox="0 0 200 200" fill="none" xmlns="http://www.w3.org/2000/svg">
<path d="M134.786 10C165.28 10.0002 190 35.5028 190 66.9619C190 79.2786 186.21 90.6814 179.769 99.999C186.21 109.317 190 120.721 190 133.038C190 164.497 165.28 190 134.786 190C121.6 190 109.495 185.231 100 177.274C90.5052 185.23 78.4003 190 65.2148 190C34.7208 190 10.0002 164.497 10 133.038C10 120.721 13.7889 109.317 20.2305 99.999C13.7894 90.6815 10 79.2783 10 66.9619C10.0001 35.5027 34.7207 10 65.2148 10C78.4001 10.0001 90.5053 14.7688 100 22.7246C109.495 14.7686 121.601 10 134.786 10Z" fill="url(#paint0_radial_176_859)"/>
<defs>
<radialGradient id="paint0_radial_176_859" cx="0" cy="0" r="1" gradientUnits="userSpaceOnUse" gradientTransform="translate(100 100) rotate(133.792) scale(130.05 104.62)">
<stop offset="0.184294" stop-color="#DCB5F0"/>
<stop offset="1" stop-color="#F4E0FF"/>
</radialGradient>
</defs>
</svg>
