<svg width="200" height="200" viewBox="0 0 200 200" fill="none" xmlns="http://www.w3.org/2000/svg">
<path d="M122.894 10C126.207 10 128.894 12.6863 128.894 16V30.2441L138.966 20.1719C141.309 17.8288 145.108 17.8289 147.451 20.1719L179.821 52.542C182.164 54.8851 182.164 58.6833 179.821 61.0264L169.741 71.1064H184C187.314 71.1064 190 73.7929 190 77.1064V122.885C190 126.198 187.314 128.885 184 128.885H169.747L179.828 138.966C182.171 141.309 182.171 145.108 179.828 147.451L147.459 179.821C145.116 182.164 141.317 182.164 138.974 179.821L128.894 169.741V184C128.894 187.314 126.207 190 122.894 190H77.1162C73.8025 190 71.1162 187.314 71.1162 184V169.731L61.0273 179.82C58.6842 182.163 54.8851 182.163 52.542 179.82L20.1719 147.451C17.8289 145.108 17.8291 141.309 20.1719 138.966L30.2529 128.885H16C12.6864 128.885 10.0001 126.198 10 122.885V77.1064C10.0002 73.7929 12.6864 71.1064 16 71.1064H30.2588L20.1797 61.0273C17.8365 58.6842 17.8365 54.8851 20.1797 52.542L52.5498 20.1719C54.8928 17.8293 58.6911 17.8293 61.0342 20.1719L71.1162 30.2539V16C71.1162 12.6863 73.8025 10 77.1162 10H122.894Z" fill="url(#paint0_radial_176_873)"/>
<defs>
<radialGradient id="paint0_radial_176_873" cx="0" cy="0" r="1" gradientUnits="userSpaceOnUse" gradientTransform="translate(100 100) rotate(133.792) scale(130.05 104.62)">
<stop offset="0.184294" stop-color="#DCB5F0"/>
<stop offset="1" stop-color="#F4E0FF"/>
</radialGradient>
</defs>
</svg>
