<svg width="300" height="300" viewBox="0 0 300 300" fill="none" xmlns="http://www.w3.org/2000/svg">
<path d="M184.341 15C189.311 15.0003 193.34 19.0296 193.34 24V45.3672L208.449 30.2578C211.964 26.7431 217.663 26.7431 221.178 30.2578L269.732 78.8125C273.247 82.3272 273.247 88.0254 269.732 91.54L254.612 106.66H276C280.971 106.66 285 110.69 285 115.66V184.327C285 189.298 280.97 193.327 276 193.327H254.621L269.743 208.449C273.258 211.964 273.258 217.663 269.743 221.178L221.188 269.732C217.674 273.247 211.975 273.247 208.46 269.732L193.34 254.611V276C193.34 280.971 189.31 285 184.34 285H115.674C110.703 285 106.674 280.971 106.674 276V254.599L91.541 269.731C88.0264 273.246 82.3281 273.246 78.8135 269.731L30.2588 221.177C26.7441 217.662 26.7441 211.963 30.2588 208.448L45.3799 193.327H24C19.0296 193.327 15.0002 189.298 15 184.327V115.66C15 110.69 19.0294 106.66 24 106.66H45.3887L30.2695 91.541C26.7548 88.0263 26.7549 82.3282 30.2695 78.8135L78.8242 30.2588C82.3389 26.7441 88.037 26.7441 91.5518 30.2588L106.674 45.3799V24C106.674 19.0294 110.703 15 115.674 15H184.341Z" fill="black"/>
</svg>
