<svg width="15" height="20" viewBox="0 0 15 20" fill="none" xmlns="http://www.w3.org/2000/svg">
<path fill-rule="evenodd" clip-rule="evenodd" d="M6.8085 19.2615L6.813 19.266L6.816 19.269C7.01283 19.4182 7.25303 19.4989 7.5 19.4989C7.74697 19.4989 7.98717 19.4182 8.184 19.269L8.187 19.266L8.1915 19.2615L8.2095 19.248C8.30604 19.1734 8.40106 19.0969 8.4945 19.0185C9.61286 18.0757 10.6404 17.0301 11.5635 15.8955C13.215 13.8525 15 10.8825 15 7.5C15 5.51088 14.2098 3.60322 12.8033 2.1967C11.3968 0.790176 9.48912 0 7.5 0C5.51088 0 3.60322 0.790176 2.1967 2.1967C0.790176 3.60322 0 5.51088 0 7.5C0 10.8825 1.785 13.8525 3.438 15.8955C4.36114 17.0301 5.38864 18.0757 6.507 19.0185L6.7905 19.248L6.8085 19.2615ZM7.5 9.75C7.79547 9.75 8.08806 9.6918 8.36104 9.57873C8.63402 9.46566 8.88206 9.29992 9.09099 9.09099C9.29992 8.88206 9.46566 8.63402 9.57873 8.36104C9.6918 8.08806 9.75 7.79548 9.75 7.5C9.75 7.20453 9.6918 6.91195 9.57873 6.63896C9.46566 6.36598 9.29992 6.11794 9.09099 5.90901C8.88206 5.70008 8.63402 5.53434 8.36104 5.42127C8.08806 5.3082 7.79547 5.25 7.5 5.25C6.90326 5.25 6.33097 5.48705 5.90901 5.90901C5.48705 6.33097 5.25 6.90326 5.25 7.5C5.25 8.09674 5.48705 8.66903 5.90901 9.09099C6.33097 9.51295 6.90326 9.75 7.5 9.75Z" fill="#111111"/>
</svg>
